<svg version="1.2" xmlns="http://www.w3.org/2000/svg" viewBox="0 0 11 20" width="11" height="20">
	<title>results</title>
	<style>
		.s0 { fill: #111111 } 
	</style>
	<g id="results">
		<g id="1">
			<g id="2">
				<path id="-e-kick" class="s0" d="m9.5 19c0.1 0.1 0.2 0.3 0.1 0.3l-0.6 0.7c-0.1 0-0.2 0-0.3-0.2l-0.2-0.2-0.7 0.1 0.1-0.7-0.3-0.3-0.7 0.1 0.1-0.7-0.4-0.5-0.7 0.1 0.1-0.7-3.8-4-0.7 0.2 0.1-0.8-0.3-0.3-0.8 0.1 0.2-0.7-0.5-0.5c-0.1-0.2-0.2-0.3-0.1-0.3l0.6-0.7c0.1 0 0.2 0 0.3 0.1zm-4.7-5.7l-3.7-3.7 2.7-2.8c0.6-0.6 0.9-0.6 1.1-0.5q0.1 0.1 0.2 0.2l2.3-6.5h3.6l-3.3 9.6c0.6-0.9 0.6 0.1 0.6 0.1-0.5 3.7 2.5 7.6 2.5 7.6 0.8 1.4-0.7 1.6-0.7 1.6l-2.7-2.8 0.8-0.3-0.4-0.4-0.8 0.2-0.6-0.6 1.7-0.4-0.5-0.6-1.7 0.5-0.6-0.6 2.6-0.8-0.5-0.5z"/>
			</g>
		</g>
	</g>
</svg>